<?xml version="1.0" standalone="no"?>
<!DOCTYPE svg PUBLIC "-//W3C//DTD SVG 20010904//EN"
 "http://www.w3.org/TR/2001/REC-SVG-20010904/DTD/svg10.dtd">
<svg version="1.0" xmlns="http://www.w3.org/2000/svg"
 width="500.000000pt" height="500.000000pt" viewBox="0 0 500.000000 500.000000"
 preserveAspectRatio="xMidYMid meet">

<g transform="translate(0.000000,500.000000) scale(0.100000,-0.100000)"
fill="#000000" stroke="none">
<path d="M3005 3125 c-55 -32 -127 -106 -190 -195 -63 -90 -96 -152 -170 -325
-32 -74 -36 -143 -10 -184 14 -24 30 2 29 47 -1 26 2 52 6 57 4 6 10 23 14 38
4 16 17 39 30 52 15 15 20 25 13 28 -12 4 -9 13 28 87 49 98 137 240 171 276
6 7 21 25 35 41 47 55 106 96 133 91 14 -3 23 -1 20 3 -10 16 -69 8 -109 -16z"/>
<path d="M1295 3109 c-93 -8 -163 -20 -206 -38 -26 -10 -49 -18 -62 -20 -20
-3 -125 -62 -149 -84 -15 -14 -29 -23 -31 -20 -6 6 -63 -65 -59 -73 2 -3 -5
-12 -15 -19 -14 -11 -16 -16 -5 -26 10 -11 12 -11 12 0 0 7 16 29 35 49 19 20
33 43 30 50 -3 7 -1 11 4 8 5 -3 35 10 66 29 32 19 78 42 101 51 24 9 44 19
44 23 0 3 10 7 23 7 12 1 47 7 77 14 97 22 172 28 309 25 73 -2 135 -6 138 -8
2 -3 -18 -26 -46 -52 -59 -55 -154 -192 -145 -207 4 -6 3 -8 -3 -5 -5 3 -45
-65 -89 -151 -43 -86 -82 -159 -86 -162 -3 -3 -8 -12 -10 -19 -2 -8 -14 -28
-28 -44 -14 -16 -23 -31 -20 -33 3 -2 -5 -11 -18 -19 -12 -9 -20 -21 -16 -26
3 -5 2 -8 -3 -7 -7 2 -19 -6 -76 -56 -25 -22 -98 -56 -142 -67 l-30 -7 35 -1
c31 -1 129 27 105 29 -5 1 10 8 35 16 61 19 138 81 200 162 14 18 30 39 37 46
22 25 69 110 107 196 86 191 161 331 197 369 36 37 41 39 71 30 18 -5 49 -9
68 -8 19 1 55 -3 80 -10 56 -13 169 -14 130 -1 -44 16 -371 59 -475 63 -55 2
-140 1 -190 -4z m-50 -698 c-9 -8 -36 -10 -30 -2 2 4 11 8 20 8 8 0 13 -3 10
-6z"/>
<path d="M3289 3080 c-85 -45 -200 -189 -284 -356 -30 -60 -55 -115 -55 -122
0 -7 -8 -25 -17 -39 -20 -30 -25 -71 -17 -121 6 -40 39 -58 81 -47 l28 9 -35
5 c-33 6 -35 8 -33 42 3 49 39 151 58 162 9 4 13 12 10 17 -3 6 20 60 52 122
32 62 56 117 55 121 -1 5 2 6 8 2 5 -3 10 -2 10 3 0 4 8 17 18 28 10 10 18 22
18 25 -2 14 113 131 143 145 35 17 46 12 54 -21 4 -16 5 -14 6 6 2 43 -40 51
-100 19z"/>
<path d="M2098 3043 c6 -2 18 -2 25 0 6 3 1 5 -13 5 -14 0 -19 -2 -12 -5z"/>
<path d="M2168 3043 c7 -3 16 -2 19 1 4 3 -2 6 -13 5 -11 0 -14 -3 -6 -6z"/>
<path d="M1943 2823 c-7 -2 -13 -16 -13 -29 0 -22 4 -25 28 -22 21 2 27 8 27
28 0 24 -17 34 -42 23z"/>
<path d="M744 2785 c-3 -20 -2 -46 3 -58 9 -19 11 -14 14 31 5 62 -7 80 -17
27z"/>
<path d="M3716 2759 c-10 -15 -12 -28 -6 -44 5 -13 6 -26 2 -31 -4 -4 -2 -4 4
-1 6 4 21 -4 34 -18 l22 -24 -21 -29 c-11 -16 -18 -32 -14 -36 3 -3 1 -6 -6
-6 -7 0 -9 -4 -6 -10 3 -5 2 -10 -4 -10 -15 0 -60 -100 -54 -118 10 -29 24
-41 43 -39 15 1 16 4 8 15 -15 18 4 70 48 137 19 27 34 56 34 64 0 7 -16 31
-36 53 -25 28 -34 46 -30 59 3 10 9 28 12 39 8 26 -11 26 -30 -1z"/>
<path d="M780 2675 c13 -14 27 -25 31 -25 5 0 -3 11 -17 25 -14 14 -28 25 -31
25 -4 0 4 -11 17 -25z"/>
<path d="M1522 2556 c-74 -147 -83 -168 -57 -142 9 8 21 13 28 10 7 -2 19 5
27 17 8 12 26 36 40 52 14 17 19 28 13 23 -19 -11 -16 -2 22 74 40 80 41 86
17 99 -17 9 -27 -6 -90 -133z"/>
<path d="M1725 2677 l-28 -24 34 1 c19 0 41 -2 49 -4 11 -4 15 2 15 20 0 34
-35 38 -70 7z"/>
<path d="M1871 2670 c-5 -17 -8 -30 -5 -30 3 0 -4 -9 -14 -20 -21 -23 -62 -98
-65 -121 -2 -8 -6 -20 -11 -27 -4 -7 -2 -20 6 -29 11 -14 11 -16 -2 -9 -8 4
-7 1 3 -7 10 -9 18 -19 17 -23 -1 -5 2 -10 7 -11 4 -2 8 17 9 41 1 27 11 61
27 91 15 26 24 52 20 59 -3 6 -3 8 2 4 11 -10 38 29 30 42 -4 6 -1 9 7 8 21
-5 21 39 0 51 -17 9 -22 7 -31 -19z"/>
<path d="M2140 2687 c-14 -6 -31 -17 -38 -24 -7 -7 -17 -13 -22 -13 -13 0 -61
-69 -63 -90 -1 -11 -4 -20 -8 -20 -10 0 -24 -41 -21 -60 8 -52 13 -62 30 -55
9 3 13 3 9 -1 -12 -12 14 -34 42 -34 l26 1 -27 12 c-25 11 -27 16 -24 63 6 95
96 224 157 224 39 0 44 -15 20 -55 -22 -37 -15 -47 12 -17 20 22 22 53 5 70
-15 15 -65 14 -98 -1z"/>
<path d="M2424 2682 c-61 -34 -120 -95 -108 -113 3 -5 0 -9 -5 -9 -6 0 -11 -6
-11 -14 0 -7 -6 -18 -13 -24 -33 -27 17 -133 62 -132 14 1 14 2 -1 14 -42 31
0 155 81 245 35 38 43 43 74 39 20 -2 33 0 31 4 -9 14 -78 8 -110 -10z"/>
<path d="M3247 2668 c-29 -58 -72 -133 -79 -138 -4 -3 -10 -28 -13 -56 -8 -56
8 -84 48 -84 20 1 21 2 5 14 -10 7 -18 21 -18 31 0 18 78 179 105 219 12 17
12 21 -3 32 -24 19 -26 18 -45 -18z"/>
<path d="M3456 2660 c-14 -22 -26 -43 -26 -46 0 -4 -7 -15 -16 -25 -15 -16
-44 -108 -44 -140 0 -43 61 -71 95 -44 19 16 19 16 -3 5 -12 -6 -32 -8 -43 -5
-16 6 -19 12 -14 33 7 33 48 119 87 186 16 27 28 49 26 50 -2 1 -10 7 -19 14
-14 10 -20 6 -43 -28z"/>
<path d="M4035 2685 c-76 -33 -152 -140 -146 -205 7 -61 42 -91 106 -89 l30 1
-34 8 c-18 4 -38 14 -42 22 -9 12 -9 121 0 113 2 -3 17 17 33 43 46 72 88 112
119 112 18 0 29 -6 32 -17 4 -14 5 -12 6 5 1 19 -4 22 -36 21 -21 0 -52 -7
-68 -14z"/>
<path d="M4106 2614 c-28 -35 -28 -36 -3 -20 14 9 27 26 30 36 3 11 4 20 4 20
-1 0 -15 -16 -31 -36z"/>
<path d="M863 2633 c9 -2 25 -2 35 0 9 3 1 5 -18 5 -19 0 -27 -2 -17 -5z"/>
<path d="M1645 2609 c-4 -6 -5 -12 -2 -15 2 -3 7 2 10 11 7 17 1 20 -8 4z"/>
<path d="M2518 2613 c-21 -5 -24 -33 -6 -51 10 -10 10 -17 0 -32 -7 -11 -8
-20 -3 -20 5 0 13 9 16 20 3 11 9 20 13 20 4 0 8 16 9 35 1 19 -1 34 -5 34 -4
-1 -15 -3 -24 -6z"/>
<path d="M4261 2519 c-35 -14 -20 -21 18 -8 17 6 47 9 66 7 18 -2 31 0 29 4
-7 11 -84 9 -113 -3z"/>
<path d="M4210 2490 c-9 -6 -10 -10 -3 -10 6 0 15 5 18 10 8 12 4 12 -15 0z"/>
<path d="M2660 2400 c0 -5 12 -10 28 -9 24 0 25 1 7 9 -27 12 -35 12 -35 0z"/>
<path d="M690 2318 c0 -18 25 -58 37 -58 7 0 13 -4 13 -9 0 -5 8 -11 18 -14 9
-2 26 -8 37 -12 11 -4 0 5 -25 20 -25 14 -46 30 -48 34 -5 14 -31 46 -32 39z"/>
</g>
</svg>
