<svg width="48" height="48" viewBox="0 0 48 48" xmlns="http://www.w3.org/2000/svg">
  <path fill="#EA4335" d="M24 9.5c3.2 0 6.1 1.1 8.3 3.2l6.2-6.2C34.7 2.7 29.7 0 24 0 14.6 0 6.5 5.4 2.6 13.3l7.4 5.7C12 13.1 17.6 9.5 24 9.5z"></path>
  <path fill="#4285F4" d="M46.1 24.5c0-1.6-.1-2.7-.4-3.9H24v7.4h12.6c-.3 2-1.9 5.1-5.4 7.1l8.3 6.4c4.8-4.4 7.6-10.8 7.6-17z"></path>
  <path fill="#FBBC05" d="M10 28.9c-.5-1.5-.8-3.1-.8-4.9s.3-3.4.8-4.9l-7.4-5.7C.9 16.9 0 20.4 0 24s.9 7.1 2.6 10.6l7.4-5.7z"></path>
  <path fill="#34A853" d="M24 48c6.5 0 12-2.1 16-5.7l-8.3-6.4c-2.2 1.6-5.1 2.7-7.7 2.7-6.4 0-12-3.6-14-9.5l-7.4 5.7C6.5 42.6 14.6 48 24 48z"></path>
</svg>
